<svg id="SvgjsSvg1013" xmlns="http://www.w3.org/2000/svg" version="1.1" xmlns:xlink="http://www.w3.org/1999/xlink" xmlns:svgjs="http://svgjs.com/svgjs" width="20" height="21" viewBox="0 0 20 21"><title>basket</title><desc>Created with Avocode.</desc><defs id="SvgjsDefs1014"></defs><path id="SvgjsPath1015" d="M722.946 186.765L722.97 186.771L720.47 198.021L720.446 198.015C720.321 198.57399999999998 719.846 198.999 719.25 198.999H706.75C706.154 198.999 705.679 198.57399999999998 705.554 198.015L705.53 198.021L703.03 186.771L703.054 186.765C703.034 186.677 703 186.594 703 186.5C703 185.809 703.56 185.25 704.25 185.25H706.75C706.75 181.798 709.548 178.999 713 178.999C716.452 178.999 719.25 181.798 719.25 185.25H721.75C722.44 185.25 723 185.809 723 186.5C723 186.594 722.966 186.677 722.946 186.765ZM713 181.499C710.929 181.499 709.25 183.178 709.25 185.25H716.75C716.75 183.178 715.071 181.499 713 181.499ZM718 190.25C717.31 190.25 716.75 189.69 716.75 188.999V187.75H709.25V188.999C709.25 189.69 708.69 190.25 708 190.25C707.31 190.25 706.75 189.69 706.75 188.999V187.75H705.808L707.753 196.499H718.2470000000001L720.1920000000001 187.75H719.2500000000001V188.999C719.2500000000001 189.69 718.6900000000002 190.25 718.0000000000001 190.25Z " fill="#fff" fill-opacity="1" transform="matrix(1,0,0,1,-703,-178)"></path><path id="SvgjsPath1016" d="M722.946 186.765L722.97 186.771L720.47 198.021L720.446 198.015C720.321 198.57399999999998 719.846 198.999 719.25 198.999H706.75C706.154 198.999 705.679 198.57399999999998 705.554 198.015L705.53 198.021L703.03 186.771L703.054 186.765C703.034 186.677 703 186.594 703 186.5C703 185.809 703.56 185.25 704.25 185.25H706.75C706.75 181.798 709.548 178.999 713 178.999C716.452 178.999 719.25 181.798 719.25 185.25H721.75C722.44 185.25 723 185.809 723 186.5C723 186.594 722.966 186.677 722.946 186.765ZM713 181.499C710.929 181.499 709.25 183.178 709.25 185.25H716.75C716.75 183.178 715.071 181.499 713 181.499ZM718 190.25C717.31 190.25 716.75 189.69 716.75 188.999V187.75H709.25V188.999C709.25 189.69 708.69 190.25 708 190.25C707.31 190.25 706.75 189.69 706.75 188.999V187.75H705.808L707.753 196.499H718.2470000000001L720.1920000000001 187.75H719.2500000000001V188.999C719.2500000000001 189.69 718.6900000000002 190.25 718.0000000000001 190.25Z " fill="#fff" fill-opacity="1" transform="matrix(1,0,0,1,-703,-178)"></path></svg>