<svg id="SvgjsSvg1009" xmlns="http://www.w3.org/2000/svg" version="1.1" xmlns:xlink="http://www.w3.org/1999/xlink" xmlns:svgjs="http://svgjs.com/svgjs" width="19" height="23" viewBox="0 0 19 23"><title>card</title><desc>Created with Avocode.</desc><defs id="SvgjsDefs1010"></defs><path id="SvgjsPath1011" d="M543.993 190.308C543.993 192.986 541.868 195.15699999999998 539.2460000000001 195.15699999999998C537.6920000000001 195.15699999999998 536.3320000000001 194.38199999999998 535.4720000000001 193.2L535.4490000000001 193.21699999999998L534.5000000000001 191.92399999999998L533.5500000000001 193.21699999999998L533.537 193.207C532.671 194.384 531.306 195.15699999999998 529.753 195.15699999999998C527.1320000000001 195.15699999999998 525.0070000000001 192.986 525.0070000000001 190.308C525.0070000000001 189.21599999999998 525.373 188.218 525.969 187.408L525.956 187.398C525.956 187.398 532.918 178.992 534.5 178.992C536.082 178.992 543.043 187.398 543.043 187.398L543.03 187.408C543.626 188.218 543.9929999999999 189.21599999999998 543.9929999999999 190.308ZM531.336 198.39C531.336 199.28199999999998 532.044 200.00699999999998 532.918 200.00699999999998H536.082C536.956 200.00699999999998 537.664 199.28199999999998 537.664 198.39C537.664 197.49699999999999 536.956 196.773 536.082 196.773V195.15699999999998C536.082 194.265 535.374 193.54 534.5 193.54C533.626 193.54 532.918 194.265 532.918 195.15699999999998V196.773C532.044 196.773 531.336 197.49699999999999 531.336 198.39Z " fill="#fff" fill-opacity="1" transform="matrix(1,0,0,1,-525,-178)"></path><path id="SvgjsPath1012" d="M543.993 190.308C543.993 192.986 541.868 195.15699999999998 539.2460000000001 195.15699999999998C537.6920000000001 195.15699999999998 536.3320000000001 194.38199999999998 535.4720000000001 193.2L535.4490000000001 193.21699999999998L534.5000000000001 191.92399999999998L533.5500000000001 193.21699999999998L533.537 193.207C532.671 194.384 531.306 195.15699999999998 529.753 195.15699999999998C527.1320000000001 195.15699999999998 525.0070000000001 192.986 525.0070000000001 190.308C525.0070000000001 189.21599999999998 525.373 188.218 525.969 187.408L525.956 187.398C525.956 187.398 532.918 178.992 534.5 178.992C536.082 178.992 543.043 187.398 543.043 187.398L543.03 187.408C543.626 188.218 543.9929999999999 189.21599999999998 543.9929999999999 190.308ZM531.336 198.39C531.336 199.28199999999998 532.044 200.00699999999998 532.918 200.00699999999998H536.082C536.956 200.00699999999998 537.664 199.28199999999998 537.664 198.39C537.664 197.49699999999999 536.956 196.773 536.082 196.773V195.15699999999998C536.082 194.265 535.374 193.54 534.5 193.54C533.626 193.54 532.918 194.265 532.918 195.15699999999998V196.773C532.044 196.773 531.336 197.49699999999999 531.336 198.39Z " fill="#fff" fill-opacity="1" transform="matrix(1,0,0,1,-525,-178)"></path></svg>