<svg id="SvgjsSvg1000" xmlns="http://www.w3.org/2000/svg" version="1.1" xmlns:xlink="http://www.w3.org/1999/xlink" xmlns:svgjs="http://svgjs.com/svgjs" width="24" height="24" viewBox="0 0 24 24"><title>tooltip</title><desc>Created with Avocode.</desc><defs id="SvgjsDefs1001"></defs><path id="SvgjsPath1007" d="M362.4 196.999H358.78L354.98999999999995 200.789C354.73599999999993 201.04299999999998 354.38599999999997 201.2 353.99999999999994 201.2C353.61299999999994 201.2 353.2629999999999 201.04299999999998 353.00999999999993 200.789L349.2199999999999 196.999H345.5999999999999C344.0529999999999 196.999 342.7999999999999 195.746 342.7999999999999 194.2V181.599C342.7999999999999 180.053 344.0529999999999 178.79999999999998 345.5999999999999 178.79999999999998H362.3999999999999C363.9459999999999 178.79999999999998 365.19999999999993 180.05299999999997 365.19999999999993 181.599V194.2C365.19999999999993 195.74599999999998 363.9459999999999 196.999 362.3999999999999 196.999ZM362.4 182.999C362.4 182.226 361.77299999999997 181.599 361 181.599H347C346.226 181.599 345.6 182.226 345.6 182.999V192.799C345.6 193.572 346.226 194.20000000000002 347 194.20000000000002H349.8C350.18600000000004 194.20000000000002 350.536 194.35600000000002 350.79 194.61L354 197.81900000000002L357.21 194.61C357.46299999999997 194.35600000000002 357.813 194.20000000000002 358.2 194.20000000000002H361C361.773 194.20000000000002 362.4 193.57200000000003 362.4 192.799ZM358.2 191.399H349.8C349.026 191.399 348.40000000000003 190.773 348.40000000000003 189.999C348.40000000000003 189.226 349.026 188.599 349.8 188.599H358.2C358.973 188.599 359.59999999999997 189.226 359.59999999999997 189.999C359.59999999999997 190.773 358.97299999999996 191.399 358.2 191.399ZM359.6 185.799C359.6 185.026 358.973 184.399 358.20000000000005 184.399H349.80000000000007C349.02600000000007 184.399 348.4000000000001 185.026 348.4000000000001 185.799C348.4000000000001 186.573 349.02600000000007 187.199 349.80000000000007 187.199H358.20000000000005C358.97300000000007 187.199 359.6 186.573 359.6 185.799Z " fill="#bdc3c7" fill-opacity="1" transform="matrix(1,0,0,1,-342,-178)"></path><path id="SvgjsPath1008" d="M362.4 196.999H358.78L354.98999999999995 200.789C354.73599999999993 201.04299999999998 354.38599999999997 201.2 353.99999999999994 201.2C353.61299999999994 201.2 353.2629999999999 201.04299999999998 353.00999999999993 200.789L349.2199999999999 196.999H345.5999999999999C344.0529999999999 196.999 342.7999999999999 195.746 342.7999999999999 194.2V181.599C342.7999999999999 180.053 344.0529999999999 178.79999999999998 345.5999999999999 178.79999999999998H362.3999999999999C363.9459999999999 178.79999999999998 365.19999999999993 180.05299999999997 365.19999999999993 181.599V194.2C365.19999999999993 195.74599999999998 363.9459999999999 196.999 362.3999999999999 196.999ZM362.4 182.999C362.4 182.226 361.77299999999997 181.599 361 181.599H347C346.226 181.599 345.6 182.226 345.6 182.999V192.799C345.6 193.572 346.226 194.20000000000002 347 194.20000000000002H349.8C350.18600000000004 194.20000000000002 350.536 194.35600000000002 350.79 194.61L354 197.81900000000002L357.21 194.61C357.46299999999997 194.35600000000002 357.813 194.20000000000002 358.2 194.20000000000002H361C361.773 194.20000000000002 362.4 193.57200000000003 362.4 192.799ZM358.2 191.399H349.8C349.026 191.399 348.40000000000003 190.773 348.40000000000003 189.999C348.40000000000003 189.226 349.026 188.599 349.8 188.599H358.2C358.973 188.599 359.59999999999997 189.226 359.59999999999997 189.999C359.59999999999997 190.773 358.97299999999996 191.399 358.2 191.399ZM359.6 185.799C359.6 185.026 358.973 184.399 358.20000000000005 184.399H349.80000000000007C349.02600000000007 184.399 348.4000000000001 185.026 348.4000000000001 185.799C348.4000000000001 186.573 349.02600000000007 187.199 349.80000000000007 187.199H358.20000000000005C358.97300000000007 187.199 359.6 186.573 359.6 185.799Z " fill="#ffffff" fill-opacity="1" transform="matrix(1,0,0,1,-342,-178)"></path></svg>